<?xml version="1.0" encoding="UTF-8" standalone="no"?>
<!-- Generator: Adobe Illustrator 25.0.0, SVG Export Plug-In . SVG Version: 6.00 Build 0)  -->

<svg
   version="1.1"
   id="Art"
   x="0px"
   y="0px"
   viewBox="0 0 977 720"
   style="enable-background:new 0 0 977 720;"
   xml:space="preserve"
   sodipodi:docname="fuse.svg"
   inkscape:version="1.2.2 (b0a8486, 2022-12-01)"
   xmlns:inkscape="http://www.inkscape.org/namespaces/inkscape"
   xmlns:sodipodi="http://sodipodi.sourceforge.net/DTD/sodipodi-0.dtd"
   xmlns="http://www.w3.org/2000/svg"
   xmlns:svg="http://www.w3.org/2000/svg"><defs
   id="defs49">
	
	
	
	
	
	
	
	
	
	
	
	
	
	
	
	
	
	
	
	
</defs><sodipodi:namedview
   id="namedview47"
   pagecolor="#ffffff"
   bordercolor="#666666"
   borderopacity="1.0"
   inkscape:showpageshadow="2"
   inkscape:pageopacity="0.0"
   inkscape:pagecheckerboard="0"
   inkscape:deskcolor="#d1d1d1"
   showgrid="false"
   inkscape:zoom="0.32777778"
   inkscape:cx="80.847457"
   inkscape:cy="372.20339"
   inkscape:window-width="1197"
   inkscape:window-height="708"
   inkscape:window-x="237"
   inkscape:window-y="30"
   inkscape:window-maximized="0"
   inkscape:current-layer="Art" />
<style
   type="text/css"
   id="style2">
	.st0{fill:#050505;}
	.st1{fill:#64AFC7;}
</style>
<g
   inkscape:groupmode="layer"
   id="layer1"
   inkscape:label="circle"
   style="display:none"><circle
     style="display:inline;opacity:0.37;fill:#ffffff;fill-opacity:1;stroke:#000000;stroke-width:3.01307;stroke-linejoin:round;stroke-dasharray:none;stroke-opacity:1"
     id="path843"
     cx="477"
     cy="325"
     r="273.49347" /></g><polygon
   class="st0"
   points="423.46,221.068 428.552,221.068 428.552,235.88 425.08,235.88 425.53,281.6 425.527,282.206 364.84,277.76 374.17,303.2 425.424,306.57 424.63,493.55 462.52,451.79 447.4,235.88 442.72,235.88 442.72,221.068 446.32,221.068 452.08,184.04 470.8,184.04 470.8,179.84 482.92,179.84 482.92,170.36 471.52,170.36 471.52,166.04 439,166.04 439,159.74 415.36,159.74 413.2,165.5 329.32,164.96 323.56,170 265.42,175.04 324.28,180.26 331.66,184.22 410.86,184.4 "
   id="polygon4"
   style="fill:#000000;stroke:#ffffff;stroke-width:2.65275;stroke-dasharray:none;stroke-opacity:1"
   transform="matrix(1.525336,0,0,1.866943,-256.21963,-254.69316)" /><polygon
   class="st1"
   points="208.27,160.55 220.24,173.06 201.07,180.8 225.73,180.8 223.66,198.62 231.31,183.68 244.99,195.11 237.34,179.54 261.19,175.49 237.88,171.62 238.6,150.92 228.34,168.29 223.48,151.46 223.66,168.29 "
   id="polygon6"
   style="stroke:#ffffff;stroke-width:1.32637;stroke-dasharray:none;stroke-opacity:1"
   transform="matrix(1.525336,0,0,1.866943,-256.21963,-254.69316)" /><polygon
   class="st0"
   points="531.64,221.068 535.24,221.068 535.24,235.88 530.56,235.88 515.44,451.79 553.33,493.55 552.536,306.57 603.79,303.2 613.12,277.76 552.433,282.206 552.43,281.6 552.88,235.88 549.408,235.88 549.408,221.068 554.5,221.068 567.1,184.4 646.3,185.637 653.68,181.677 712.54,176.457 654.4,171.417 648.64,166.377 564.76,167.059 562.6,161.299 538.96,161.299 538.96,167.599 500.346,166.04 500.346,170.36 488.946,170.36 488.946,179.84 501.066,179.84 501.066,184.04 525.88,184.04 "
   id="polygon8"
   style="fill:#000000;stroke:#ffffff;stroke-width:2.65275;stroke-dasharray:none;stroke-opacity:1"
   transform="matrix(1.525336,0,0,1.866943,-256.21963,-254.69316)" /><polygon
   class="st1"
   points="756.01,153.17 748.9,168.92 739.859,151.303 740.98,174.14 718.383,178.121 742.377,181.204 735.362,197.071 748.569,185.097 752.95,198.08 754.028,181.994 774.91,182.87 756.1,175.334 768.79,165.23 754.39,170.81 "
   id="polygon10"
   style="stroke:#ffffff;stroke-width:1.32637;stroke-dasharray:none;stroke-opacity:1"
   transform="matrix(1.525336,0,0,1.866943,-256.21963,-254.69316)" />
</svg>
